<?xml version="1.0" standalone="no"?><!DOCTYPE svg PUBLIC "-//W3C//DTD SVG 1.1//EN" "http://www.w3.org/Graphics/SVG/1.1/DTD/svg11.dtd"><svg t="1753260082389" class="icon" viewBox="0 0 1024 1024" version="1.1" xmlns="http://www.w3.org/2000/svg" p-id="7769" xmlns:xlink="http://www.w3.org/1999/xlink" width="200" height="200"><path d="M948.516571 158.72c0 286.72 58.953143 696.32-436.736 865.28C19.017143 855.04 75.081143 445.44 75.081143 158.72A606.72 606.72 0 0 0 511.780571 0a606.72 606.72 0 0 0 436.736 158.72zM683.52 339.748571l-227.218286 247.808-115.821714-126.281142a26.477714 26.477714 0 0 0-39.68 0 32.548571 32.548571 0 0 0 0 43.300571l135.68 147.931429c5.412571 5.997714 12.617143 8.96 19.821714 8.96a26.770286 26.770286 0 0 0 19.821715-8.96l247.076571-269.531429a32.548571 32.548571 0 0 0 0-43.264 26.477714 26.477714 0 0 0-39.68 0z" fill="#09BB07" p-id="7770"></path></svg>