<?xml version="1.0" standalone="no"?><!DOCTYPE svg PUBLIC "-//W3C//DTD SVG 1.1//EN" "http://www.w3.org/Graphics/SVG/1.1/DTD/svg11.dtd"><svg t="1756265266639" class="icon" viewBox="0 0 1038 1024" version="1.1" xmlns="http://www.w3.org/2000/svg" p-id="2883" xmlns:xlink="http://www.w3.org/1999/xlink" width="202.734375" height="200"><path d="M746.801706 0h-608.254783C45.363109 0 0 71.679857 0 180.326039v816.740767a33.382333 33.382333 0 0 0 2.764794 13.107174 19.148762 19.148762 0 0 0 28.569543 8.703982l177.868445-126.463747h263.577072a402.226396 402.226396 0 0 1 15.667169-248.729102C558.488483 471.039058 732.772934 397.106406 879.307041 478.923842c0 0 0-320.408959 0.921599-320.408959C880.638239 48.332703 838.961522 0 746.801706 0z m-380.927238 549.7845H167.423665a51.814296 51.814296 0 0 1-49.049502-54.57909A51.814296 51.814296 0 0 1 167.423665 440.319119h198.450803a51.814296 51.814296 0 0 1 49.049502 54.579091 51.814296 51.814296 0 0 1-49.049502 54.88629z m346.930506-247.602704H167.423665a51.814296 51.814296 0 0 1-49.049502-54.579091 51.814296 51.814296 0 0 1 49.049502-54.579091h545.381309a51.814296 51.814296 0 0 1 49.049502 54.579091 51.814296 51.814296 0 0 1-49.049502 54.579091z" fill="#1296db" p-id="2884"></path><path d="M798.718403 769.022462V661.912276a43.417513 43.417513 0 1 0-86.937427 0v131.276538a43.212714 43.212714 0 0 0 15.25757 33.791932 53.555093 53.555093 0 0 0 7.679985 5.836788l112.639774 67.583865a44.031912 44.031912 0 1 0 47.308706-74.342251l-0.921598-0.921598L798.718403 769.022462zM776.088048 1023.997952a263.679473 263.679473 0 1 1 262.655475-263.679473A263.372273 263.372273 0 0 1 776.088048 1023.997952z" fill="#1296db" p-id="2885"></path></svg>