<?xml version="1.0" standalone="no"?><!DOCTYPE svg PUBLIC "-//W3C//DTD SVG 1.1//EN" "http://www.w3.org/Graphics/SVG/1.1/DTD/svg11.dtd"><svg t="1756195467180" class="icon" viewBox="0 0 1027 1024" version="1.1" xmlns="http://www.w3.org/2000/svg" p-id="2875" xmlns:xlink="http://www.w3.org/1999/xlink" width="200.5859375" height="200"><path d="M407.27272719 913.45454563h-232.7272725c-34.90909125 0-64.00000031-29.09090906-64.00000031-64.00000032v-232.7272725c0-20.36363625-17.45454563-37.81818188-37.81818188-37.81818187-20.36363625 0-37.81818188 17.45454563-37.81818187 37.81818187v232.7272725C32 927.99999969 96.00000031 992 174.54545469 992h232.7272725c20.36363625 0 37.81818188-17.45454563 37.81818187-37.81818188 2.90909063-23.27272688-17.45454563-40.7272725-37.81818187-40.7272725z m-337.45454532-465.45454594c20.36363625 0 37.81818188-17.45454563 37.81818188-37.81818188V177.45454531c0-34.90909125 29.09090906-64.00000031 64.00000031-64.00000031h232.7272725c20.36363625 0 37.81818188-17.45454563 37.81818188-37.81818094 0-20.36363625-17.45454563-37.81818188-37.81818188-37.81818187h-232.7272725C96.00000031 32 32 96.00000031 32 174.54545469v232.7272725c0 20.36363625 17.45454563 40.7272725 37.81818188 40.7272725zM849.45454531 32h-232.7272725c-20.36363625 0-37.81818188 17.45454563-37.81818187 37.81818188 0 20.36363625 17.45454563 37.81818188 37.81818187 37.81818187h232.7272725c34.90909125 0 64.00000031 29.09090906 64.00000031 64.00000031v232.7272725c0 20.36363625 17.45454563 37.81818188 37.81818188 37.81818188 20.36363625 0 37.81818188-17.45454563 37.81818187-37.81818188v-232.7272725C992 96.00000031 927.99999969 32 849.45454531 32z m104.72727281 544.00000031c-20.36363625 0-37.81818188 17.45454563-37.81818187 37.81818188v232.7272725c0 34.90909125-29.09090906 64.00000031-64.00000031 64.00000031h-232.7272725c-20.36363625 0-37.81818188 17.45454563-37.81818188 37.81818094 0 20.36363625 17.45454563 37.81818188 37.81818188 37.81818187h232.7272725c78.54545438 0 142.54545469-64.00000031 142.54545469-142.54545375v-232.72727344c-2.90909063-14.545455-20.36363625-34.90909125-40.72727251-34.90909031z m-322.90909125-232.72727344c-81.454545-81.454545-212.36363625-81.454545-293.81818125 0s-81.454545 212.36363625 1e-8 293.81818219 212.36363625 81.454545 293.81818125 0 81.454545-212.36363625-1e-8-293.81818219z m-43.63636312 250.18181813c-58.18181812 58.18181812-148.36363594 58.18181812-206.545455 0s-58.18181812-148.36363594 0-206.54545406 148.36363594-58.18181812 206.545455 0 58.18181812 151.2727275 0 206.54545406z m69.81818156 46.54545469l-20.36363625 20.36363625c-5.81818219 5.81818219-5.81818219 14.545455 0 20.36363718l87.27272719 87.27272719c5.81818219 5.81818219 14.545455 5.81818219 20.36363625 0l20.36363625-20.36363625c5.81818219-5.81818219 5.81818219-14.545455 0-20.36363719l-87.27272719-87.27272718c-5.81818219-5.81818219-14.545455-5.81818219-20.36363625 0z" fill="#cdcdcd" p-id="2876"></path></svg>