<?xml version="1.0" standalone="no"?><!DOCTYPE svg PUBLIC "-//W3C//DTD SVG 1.1//EN" "http://www.w3.org/Graphics/SVG/1.1/DTD/svg11.dtd"><svg t="1756374839771" class="icon" viewBox="0 0 1024 1024" version="1.1" xmlns="http://www.w3.org/2000/svg" p-id="3019" xmlns:xlink="http://www.w3.org/1999/xlink" width="200" height="200"><path d="M819.2 0A204.8 204.8 0 0 1 1024 204.8v614.4a204.8 204.8 0 0 1-204.8 204.8H204.8A204.856889 204.856889 0 0 1 0 819.2V204.8C0 91.704889 91.648 0 204.8 0z m0 81.92H204.8c-67.697778 0-122.88 55.182222-122.88 122.88v614.4c0 67.697778 55.182222 122.88 122.88 122.88h614.4c67.754667 0 122.88-55.182222 122.88-122.88V204.8c0-67.697778-55.125333-122.88-122.88-122.88zM334.279111 319.715556c41.642667 0 73.045333 14.392889 98.759111 40.106666 34.474667 34.531556 36.352 76.743111 36.408889 133.575111v12.401778c0 55.011556 0.568889 95.630222-22.584889 129.536l31.345778 31.402667-37.546667 37.546666-32.369777-32.426666c-20.48 13.368889-45.226667 20.024889-73.955556 20.024889-41.642667 0-73.557333-14.336-99.271111-40.049778-32.085333-32.085333-35.555556-70.712889-35.953778-121.628445v-48.753777c0.398222-50.915556 3.868444-89.543111 35.896889-121.628445 25.713778-25.713778 57.628444-40.106667 99.271111-40.106666z m356.920889 3.128888l133.688889 366.023112h-74.524445l-21.617777-64.853334h-130.048l-22.129778 64.853334h-74.524445l133.176889-366.023112h55.978667zM334.279111 383.431111c-19.512889 0-36.010667 7.68-46.250667 19.512889-13.084444 14.506667-17.066667 30.378667-17.464888 90.908444v11.946667c0 70.371556 3.584 87.324444 17.521777 102.741333 10.24 11.832889 26.737778 19.569778 46.250667 19.569778a41.016889 41.016889 0 0 0 23.608889-6.712889l-31.857778-31.288889 38.001778-37.546666 27.306667 27.192889c5.632-15.928889 6.656-36.977778 6.656-73.955556 0-70.485333-4.096-87.438222-17.976889-102.855111a59.392 59.392 0 0 0-45.738667-19.512889z m330.752 47.331556l-46.307555 133.12h91.022222l-44.714667-133.12z" fill="#1296db" p-id="3020"></path></svg>