<?xml version="1.0" standalone="no"?><!DOCTYPE svg PUBLIC "-//W3C//DTD SVG 1.1//EN" "http://www.w3.org/Graphics/SVG/1.1/DTD/svg11.dtd"><svg t="1756561247969" class="icon" viewBox="0 0 1137 1024" version="1.1" xmlns="http://www.w3.org/2000/svg" p-id="3208" xmlns:xlink="http://www.w3.org/1999/xlink" width="222.0703125" height="200"><path d="M781.490794 0h-144.806604c-28.964571 0-48.274286 19.488508-48.274285 48.713143v925.435936c0 29.224635 19.309714 48.696889 48.274285 48.696889h144.822858c28.948317 0 48.258032-19.472254 48.258031-48.696889V48.713143C829.765079 19.488508 810.455365 0 781.490794 0z" fill="#93A8FF" p-id="3209"></path><path d="M757.353651 584.492698h-96.532318c-14.466032 0-24.137143-9.752381-24.137143-24.364698 0-14.612317 9.654857-24.348444 24.137143-24.348444h96.548572c14.466032 0 24.120889 9.752381 24.120889 24.348444 0 14.628571-9.654857 24.364698-24.137143 24.364698z" fill="#FFFFFF" p-id="3210"></path><path d="M757.353651 438.369524h-96.532318c-14.466032 0-24.137143-9.752381-24.137143-24.364699 0-14.612317 9.654857-24.348444 24.137143-24.348444h96.548572c14.466032 0 24.120889 9.752381 24.120889 24.348444 0 14.628571-9.654857 24.364698-24.137143 24.364699zM757.353651 292.246349h-96.532318c-14.466032 0-24.137143-9.752381-24.137143-24.364698 0-14.612317 9.654857-24.348444 24.137143-24.348445h96.548572c14.466032 0 24.120889 9.752381 24.120889 24.348445 0 14.628571-9.654857 24.364698-24.137143 24.364698zM757.353651 146.123175h-96.532318c-14.466032 0-24.137143-9.752381-24.137143-24.348445 0-14.628571 9.654857-24.364698 24.137143-24.364698h96.548572c14.466032 0 24.120889 9.752381 24.120889 24.364698 0 14.612317-9.654857 24.348444-24.137143 24.348445z" fill="#FCCA1F" p-id="3211"></path><path d="M555.268063 52.597841L412.883302 3.738413c-24.543492-9.752381-54.011937 0-63.829334 24.429714L5.36381 902.550349c-9.817397 24.429714 4.908698 53.735619 29.468444 63.504254l142.384762 53.735619c24.543492 9.768635 54.011937-4.87619 63.829333-29.305905L584.736508 116.102095c9.817397-24.429714 0-53.735619-29.468445-63.504254zM349.053968 585.045333c-4.908698 14.644825-19.634794 19.53727-34.360889 14.644826l-93.297777-34.182096c-14.726095-4.892444-19.634794-19.553524-14.726096-34.198349 4.908698-14.661079 19.634794-19.53727 34.377143-14.661079l93.297778 34.198349c14.709841 4.87619 19.61854 19.53727 14.709841 34.198349z m54.011937-136.777143c-4.908698 9.752381-19.634794 14.644825-34.360889 9.752381l-93.297778-34.182095c-14.726095-4.87619-19.634794-19.53727-14.726095-34.198349 4.908698-14.644825 19.634794-19.53727 34.377143-14.644825l93.281524 39.074539c14.726095 4.87619 19.634794 19.53727 14.726095 34.198349z m54.011936-141.669587c-4.908698 14.661079-19.634794 19.53727-34.377143 14.66108l-93.281523-34.19835c-14.726095-4.87619-19.634794-19.53727-14.726096-34.198349 4.908698-9.752381 19.634794-14.644825 34.360889-9.752381l93.297778 34.182095c14.726095 4.87619 19.634794 19.53727 14.726095 29.305905z m54.011937-136.777143c-4.908698 14.661079-19.651048 19.553524-34.377143 14.66108l-93.297778-34.19835c-14.709841-4.87619-19.61854-19.53727-14.709841-34.182095 4.908698-14.661079 19.634794-19.553524 34.360889-14.661079l93.297778 34.198349c14.726095 4.87619 19.634794 19.53727 14.726095 34.182095zM1080.303746 0h-144.806603c-28.964571 0-48.274286 19.488508-48.274286 48.713143v925.435936c0 29.224635 19.309714 48.696889 48.274286 48.696889h144.822857c28.932063 0 48.258032-19.472254 48.258032-48.696889V48.713143c0-29.224635-19.309714-48.713143-48.274286-48.713143zM1056.182857 584.492698h-96.548571c-14.466032 0-24.120889-9.752381-24.120889-24.364698 0-14.612317 9.654857-24.348444 24.137143-24.348444h96.548571c14.466032 0 24.120889 9.752381 24.120889 24.348444 0 14.628571-9.654857 24.364698-24.137143 24.364698z m0-146.123174h-96.548571c-14.466032 0-24.120889-9.752381-24.120889-24.364699 0-14.612317 9.654857-24.348444 24.137143-24.348444h96.548571c14.466032 0 24.120889 9.752381 24.120889 24.348444 0 14.628571-9.654857 24.364698-24.137143 24.364699z m0-146.123175h-96.548571c-14.466032 0-24.120889-9.752381-24.120889-24.364698 0-14.612317 9.654857-24.348444 24.137143-24.348445h96.548571c14.466032 0 24.120889 9.752381 24.120889 24.348445 0 14.628571-9.654857 24.364698-24.137143 24.364698z m0-146.123174h-96.548571c-14.466032 0-24.120889-9.752381-24.120889-24.348445 0-14.628571 9.654857-24.364698 24.137143-24.364698h96.548571c14.466032 0 24.120889 9.752381 24.120889 24.364698 0 14.612317-9.654857 24.348444-24.137143 24.348445z" fill="#4D7CFE" p-id="3212"></path></svg>