<?xml version="1.0" standalone="no"?><!DOCTYPE svg PUBLIC "-//W3C//DTD SVG 1.1//EN" "http://www.w3.org/Graphics/SVG/1.1/DTD/svg11.dtd"><svg t="1760884756224" class="icon" viewBox="0 0 1024 1024" version="1.1" xmlns="http://www.w3.org/2000/svg" p-id="3866" xmlns:xlink="http://www.w3.org/1999/xlink" width="200" height="200"><path d="M0 0m256 0l512 0q256 0 256 256l0 512q0 256-256 256l-512 0q-256 0-256-256l0-512q0-256 256-256Z" fill="#F3956A" p-id="3867"></path><path d="M657.6 458.24c-19.584-0.64-38.592 6.4-53.056 19.52L477.44 604.864a75.136 75.136 0 0 0-19.52 52.992c20.416 90.368-64.32 169.088-152.896 142.08l73.152-73.088-15.744-64.768-64.704-15.872-73.152 73.088c-27.2-88.64 51.648-173.504 142.08-153.024 19.52 0.64 38.592-6.4 52.992-19.584l126.72-126.72c13.184-14.464 20.224-33.472 19.584-52.992-20.48-90.432 64.384-169.28 153.088-142.08l-73.152 73.152 15.872 64.704 64.768 15.744 73.152-73.152c26.944 88.576-51.84 173.312-142.08 152.832z m-213.952 7.296L345.984 368l-52.288-23.808-40.96-67.84 24.896-24.832 67.84 40.768 23.424 52.864 97.6 97.6-22.848 22.848zM605.312 533.12q40.96 63.04 68.032 49.152l106.944 107.008a34.752 34.752 0 0 1 0 48.832l-41.472 41.472a34.368 34.368 0 0 1-48.832 0L582.976 672.64q13.888-26.88-49.152-68.032l12.608-12.608 46.08-46.272 3.456-3.328 9.344-9.28z m128 207.168l7.296-7.296a5.12 5.12 0 0 0 0-7.36l-102.4-102.592a5.12 5.12 0 0 0-7.296 0l-7.296 7.36a5.12 5.12 0 0 0 0 7.296l102.4 102.592a5.12 5.12 0 0 0 7.296 0z" fill="#FFFFFF" p-id="3868"></path></svg>